<svg data-v-fde0c5aa="" xmlns="http://www.w3.org/2000/svg" viewBox="0 0 300 300" class="font"><!----><defs data-v-fde0c5aa=""><!----></defs><rect data-v-fde0c5aa="" fill="transparent" x="0" y="0" width="300px" height="300px" class="logo-background-square"></rect><defs data-v-fde0c5aa=""><linearGradient data-v-fde0c5aa="" gradientTransform="rotate(25)" id="7a7e33b3-e6a0-4029-b6d4-bb7d9777f636" x1="0%" y1="0%" x2="100%" y2="0%"><stop data-v-fde0c5aa="" offset="0%" stop-color="#122663" stop-opacity="1"></stop><stop data-v-fde0c5aa="" offset="100%" stop-color="#5DD7AD" stop-opacity="1"></stop></linearGradient></defs><g data-v-fde0c5aa="" id="7b6a76d5-a071-405c-bee9-666e7a8beedc" fill="url(#7a7e33b3-e6a0-4029-b6d4-bb7d9777f636)" transform="matrix(4.201680623290636,0,0,4.201680623290636,37.058823613784476,113.38677749518064)"><path d="M2.24 3.72L2.24 3.72L4.40 3.72L4.40 3.72Q5.53 3.72 6.24 4.24L6.24 4.24L6.24 4.24Q6.96 4.75 7.29 5.51L7.29 5.51L7.29 5.51Q7.62 6.27 7.57 7.16L7.57 7.16L7.57 7.16Q7.52 8.05 7.14 8.81L7.14 8.81L7.14 8.81Q6.76 9.58 6.06 10.09L6.06 10.09L6.06 10.09Q5.36 10.60 4.38 10.60L4.38 10.60L4.38 10.60Q3.64 10.60 3.24 10.35L3.24 10.35L3.24 10.35Q2.84 10.11 2.70 9.77L2.70 9.77L2.70 9.77Q2.56 9.42 2.63 9.04L2.63 9.04L2.63 9.04Q2.70 8.67 2.90 8.39L2.90 8.39L2.90 8.39Q2.97 8.54 3.16 8.62L3.16 8.62L3.16 8.62Q3.36 8.71 3.60 8.75L3.60 8.75L3.60 8.75Q3.85 8.79 4.09 8.79L4.09 8.79L4.09 8.79Q4.33 8.79 4.48 8.76L4.48 8.76L4.48 8.76Q4.86 8.69 5.13 8.43L5.13 8.43L5.13 8.43Q5.40 8.16 5.54 7.81L5.54 7.81L5.54 7.81Q5.67 7.45 5.67 7.05L5.67 7.05L5.67 7.05Q5.67 6.65 5.51 6.31L5.51 6.31L5.51 6.31Q5.35 5.98 5.00 5.76L5.00 5.76L5.00 5.76Q4.66 5.54 4.13 5.54L4.13 5.54L2.55 5.54L2.55 13.52L0.70 13.52L0.70 5.45L0.70 5.45Q0.70 4.68 1.05 4.20L1.05 4.20L1.05 4.20Q1.40 3.72 2.24 3.72ZM12.21 6.10L12.21 6.10L12.21 6.10Q13.31 6.10 14.18 6.64L14.18 6.64L14.18 6.64Q15.04 7.17 15.53 7.99L15.53 7.99L15.53 7.99Q16.02 8.82 16.05 9.83L16.05 9.83L16.05 9.83Q16.09 10.84 15.54 11.80L15.54 11.80L15.54 11.80Q15.08 12.60 14.34 13.08L14.34 13.08L14.34 13.08Q13.59 13.55 12.75 13.67L12.75 13.67L12.75 13.67Q11.91 13.79 11.07 13.53L11.07 13.53L11.07 13.53Q10.22 13.27 9.55 12.60L9.55 12.60L9.55 12.60Q8.79 11.83 8.54 10.82L8.54 10.82L8.54 10.82Q8.29 9.81 8.58 8.81L8.58 8.81L8.58 8.81Q8.71 8.40 8.99 8.13L8.99 8.13L8.99 8.13Q9.28 7.87 9.65 7.74L9.65 7.74L9.65 7.74Q10.01 7.62 10.40 7.63L10.40 7.63L10.40 7.63Q10.79 7.64 11.13 7.79L11.13 7.79L11.13 7.79Q11.47 7.94 11.70 8.21L11.70 8.21L11.70 8.21Q11.93 8.48 11.97 8.88L11.97 8.88L11.97 8.88Q11.76 8.72 11.47 8.71L11.47 8.71L11.47 8.71Q11.17 8.71 10.90 8.84L10.90 8.84L10.90 8.84Q10.63 8.97 10.44 9.25L10.44 9.25L10.44 9.25Q10.25 9.52 10.25 9.93L10.25 9.93L10.25 9.93Q10.25 10.63 10.54 11.09L10.54 11.09L10.54 11.09Q10.84 11.55 11.28 11.78L11.28 11.78L11.28 11.78Q11.72 12.01 12.23 12.01L12.23 12.01L12.23 12.01Q12.74 12.01 13.18 11.77L13.18 11.77L13.18 11.77Q13.62 11.54 13.92 11.07L13.92 11.07L13.92 11.07Q14.21 10.60 14.21 9.90L14.21 9.90L14.21 9.90Q14.21 9.35 14.01 8.93L14.01 8.93L14.01 8.93Q13.82 8.51 13.49 8.24L13.49 8.24L13.49 8.24Q13.16 7.97 12.73 7.86L12.73 7.86L12.73 7.86Q12.29 7.76 11.80 7.85L11.80 7.85L11.80 7.85Q11.59 7.60 11.29 7.46L11.29 7.46L11.29 7.46Q10.99 7.31 10.64 7.26L10.64 7.26L10.64 7.26Q10.29 7.21 9.94 7.27L9.94 7.27L9.94 7.27Q9.59 7.34 9.28 7.52L9.28 7.52L9.28 7.52Q9.84 6.85 10.58 6.48L10.58 6.48L10.58 6.48Q11.33 6.10 12.21 6.10ZM19.00 6.29L19.00 7.11L19.00 7.11Q19.11 6.86 19.33 6.68L19.33 6.68L19.33 6.68Q19.56 6.50 19.84 6.38L19.84 6.38L19.84 6.38Q20.12 6.26 20.41 6.19L20.41 6.19L20.41 6.19Q20.71 6.12 20.96 6.10L20.96 6.10L20.96 6.10Q21.49 6.06 22.02 6.24L22.02 6.24L22.02 6.24Q22.54 6.41 22.96 6.85L22.96 6.85L22.96 6.85Q23.09 6.99 23.19 7.13L23.19 7.13L23.19 7.13Q23.30 7.28 23.37 7.46L23.37 7.46L23.37 7.46Q23.41 7.15 23.62 6.91L23.62 6.91L23.62 6.91Q23.83 6.66 24.13 6.49L24.13 6.49L24.13 6.49Q24.43 6.31 24.78 6.22L24.78 6.22L24.78 6.22Q25.13 6.12 25.47 6.10L25.47 6.10L25.47 6.10Q26.01 6.06 26.54 6.24L26.54 6.24L26.54 6.24Q27.06 6.41 27.51 6.85L27.51 6.85L27.51 6.85Q28.14 7.50 28.14 8.74L28.14 8.74L28.14 13.52L26.32 13.52L26.32 13.52Q26.32 13.29 26.32 12.88L26.32 12.88L26.32 12.88Q26.32 12.47 26.31 11.99L26.31 11.99L26.31 11.99Q26.31 11.51 26.31 10.99L26.31 10.99L26.31 10.99Q26.31 10.47 26.29 10.01L26.29 10.01L26.29 10.01Q26.28 9.55 26.26 9.18L26.26 9.18L26.26 9.18Q26.24 8.82 26.21 8.65L26.21 8.65L26.21 8.65Q26.05 7.74 25.19 7.70L25.19 7.70L25.19 7.70Q24.70 7.69 24.37 7.98L24.37 7.98L24.37 7.98Q24.04 8.27 24.05 8.69L24.05 8.69L24.05 8.69Q23.93 8.65 23.80 8.55L23.80 8.55L23.80 8.55Q23.67 8.44 23.58 8.30L23.58 8.30L23.58 8.30Q23.59 8.41 23.59 8.52L23.59 8.52L23.59 8.52Q23.59 8.62 23.59 8.74L23.59 8.74L23.59 13.52L21.80 13.52L21.80 13.52Q21.80 13.29 21.80 12.88L21.80 12.88L21.80 12.88Q21.81 12.47 21.81 11.99L21.81 11.99L21.81 11.99Q21.81 11.51 21.81 10.99L21.81 10.99L21.81 10.99Q21.81 10.47 21.80 10.01L21.80 10.01L21.80 10.01Q21.78 9.55 21.76 9.18L21.76 9.18L21.76 9.18Q21.73 8.82 21.69 8.65L21.69 8.65L21.69 8.65Q21.57 8.20 21.27 7.98L21.27 7.98L21.27 7.98Q20.96 7.76 20.59 7.76L20.59 7.76L20.59 7.76Q20.10 7.76 19.84 8.02L19.84 8.02L19.84 8.02Q19.57 8.27 19.57 8.69L19.57 8.69L19.57 8.69Q19.40 8.64 19.24 8.46L19.24 8.46L19.24 8.46Q19.07 8.29 19.00 8.09L19.00 8.09L19.00 13.52L17.18 13.52L17.18 6.29L19.00 6.29ZM33.05 6.10L33.05 6.10L33.05 6.10Q34.16 6.10 35.02 6.64L35.02 6.64L35.02 6.64Q35.88 7.17 36.37 7.99L36.37 7.99L36.37 7.99Q36.86 8.82 36.90 9.83L36.90 9.83L36.90 9.83Q36.93 10.84 36.39 11.80L36.39 11.80L36.39 11.80Q35.92 12.60 35.18 13.08L35.18 13.08L35.18 13.08Q34.44 13.55 33.60 13.67L33.60 13.67L33.60 13.67Q32.76 13.79 31.91 13.53L31.91 13.53L31.91 13.53Q31.07 13.27 30.39 12.60L30.39 12.60L30.39 12.60Q29.64 11.83 29.39 10.82L29.39 10.82L29.39 10.82Q29.13 9.81 29.43 8.81L29.43 8.81L29.43 8.81Q29.55 8.40 29.84 8.13L29.84 8.13L29.84 8.13Q30.13 7.87 30.49 7.74L30.49 7.74L30.49 7.74Q30.86 7.62 31.25 7.63L31.25 7.63L31.25 7.63Q31.64 7.64 31.98 7.79L31.98 7.79L31.98 7.79Q32.31 7.94 32.54 8.21L32.54 8.21L32.54 8.21Q32.77 8.48 32.82 8.88L32.82 8.88L32.82 8.88Q32.61 8.72 32.31 8.71L32.31 8.71L32.31 8.71Q32.02 8.71 31.75 8.84L31.75 8.84L31.75 8.84Q31.47 8.97 31.28 9.25L31.28 9.25L31.28 9.25Q31.09 9.52 31.09 9.93L31.09 9.93L31.09 9.93Q31.09 10.63 31.39 11.09L31.39 11.09L31.39 11.09Q31.68 11.55 32.12 11.78L32.12 11.78L32.12 11.78Q32.56 12.01 33.08 12.01L33.08 12.01L33.08 12.01Q33.59 12.01 34.03 11.77L34.03 11.77L34.03 11.77Q34.47 11.54 34.76 11.07L34.76 11.07L34.76 11.07Q35.06 10.60 35.06 9.90L35.06 9.90L35.06 9.90Q35.06 9.35 34.86 8.93L34.86 8.93L34.86 8.93Q34.66 8.51 34.34 8.24L34.34 8.24L34.34 8.24Q34.01 7.97 33.57 7.86L33.57 7.86L33.57 7.86Q33.14 7.76 32.65 7.85L32.65 7.85L32.65 7.85Q32.44 7.60 32.14 7.46L32.14 7.46L32.14 7.46Q31.84 7.31 31.49 7.26L31.49 7.26L31.49 7.26Q31.14 7.21 30.79 7.27L30.79 7.27L30.79 7.27Q30.44 7.34 30.13 7.52L30.13 7.52L30.13 7.52Q30.69 6.85 31.43 6.48L31.43 6.48L31.43 6.48Q32.17 6.10 33.05 6.10ZM39.83 6.27L39.83 7.11L39.83 7.11Q39.94 6.86 40.17 6.68L40.17 6.68L40.17 6.68Q40.40 6.50 40.68 6.37L40.68 6.37L40.68 6.37Q40.96 6.24 41.26 6.17L41.26 6.17L41.26 6.17Q41.55 6.10 41.80 6.09L41.80 6.09L41.80 6.09Q42.34 6.06 42.85 6.24L42.85 6.24L42.85 6.24Q43.37 6.41 43.81 6.85L43.81 6.85L43.81 6.85Q44.44 7.50 44.44 8.74L44.44 8.74L44.44 13.52L42.64 13.52L42.64 13.52Q42.64 13.29 42.65 12.88L42.65 12.88L42.65 12.88Q42.66 12.47 42.66 11.99L42.66 11.99L42.66 11.99Q42.66 11.51 42.66 10.99L42.66 10.99L42.66 10.99Q42.66 10.47 42.64 10.01L42.64 10.01L42.64 10.01Q42.63 9.55 42.60 9.18L42.60 9.18L42.60 9.18Q42.57 8.82 42.53 8.65L42.53 8.65L42.53 8.65Q42.42 8.20 42.11 7.98L42.11 7.98L42.11 7.98Q41.79 7.76 41.43 7.76L41.43 7.76L41.43 7.76Q40.95 7.76 40.68 8.02L40.68 8.02L40.68 8.02Q40.42 8.27 40.42 8.69L40.42 8.69L40.42 8.69Q40.25 8.64 40.08 8.46L40.08 8.46L40.08 8.46Q39.91 8.29 39.83 8.09L39.83 8.09L39.83 8.47L39.83 13.52L38.02 13.52L38.02 6.27L39.83 6.27ZM51.24 13.52L51.24 12.73L51.24 12.73Q50.71 13.24 50.09 13.48L50.09 13.48L50.09 13.48Q49.46 13.72 48.83 13.70L48.83 13.70L48.83 13.70Q48.20 13.68 47.61 13.41L47.61 13.41L47.61 13.41Q47.01 13.15 46.56 12.65L46.56 12.65L46.56 12.65Q46.10 12.15 45.83 11.46L45.83 11.46L45.83 11.46Q45.56 10.77 45.56 9.88L45.56 9.88L45.56 9.88Q45.56 9.04 45.85 8.33L45.85 8.33L45.85 8.33Q46.14 7.62 46.64 7.11L46.64 7.11L46.64 7.11Q47.14 6.61 47.78 6.34L47.78 6.34L47.78 6.34Q48.41 6.06 49.10 6.09L49.10 6.09L49.10 6.09Q49.77 6.12 50.18 6.39L50.18 6.39L50.18 6.39Q50.58 6.66 50.77 7.03L50.77 7.03L50.77 7.03Q50.96 7.39 50.97 7.76L50.97 7.76L50.97 7.76Q50.97 8.13 50.85 8.36L50.85 8.36L50.85 8.36Q50.61 8.01 50.18 7.89L50.18 7.89L50.18 7.89Q49.74 7.77 49.34 7.77L49.34 7.77L49.34 7.77Q48.69 7.77 48.26 8.09L48.26 8.09L48.26 8.09Q47.82 8.40 47.60 8.88L47.60 8.88L47.60 8.88Q47.38 9.35 47.37 9.91L47.37 9.91L47.37 9.91Q47.36 10.46 47.58 10.93L47.58 10.93L47.58 10.93Q47.80 11.41 48.24 11.73L48.24 11.73L48.24 11.73Q48.68 12.04 49.34 12.04L49.34 12.04L49.34 12.04Q49.90 12.04 50.26 11.79L50.26 11.79L50.26 11.79Q50.62 11.54 50.84 11.14L50.84 11.14L50.84 11.14Q51.06 10.74 51.15 10.24L51.15 10.24L51.15 10.24Q51.24 9.74 51.24 9.25L51.24 9.25L51.24 7.04L51.24 6.27L53.06 6.27L53.06 13.52L51.24 13.52Z"></path></g><!----><!----></svg>